<svg width="460" height="400" viewBox="0 0 460 400" fill="none" xmlns="http://www.w3.org/2000/svg">
<g opacity="0.1">
<path d="M446.439 161.243C445.025 166.219 438.797 164.718 435.151 166.011C429.287 168.092 421.971 170.351 415.728 171.116C405.284 172.395 394.696 170.376 384.304 170.026C376.978 169.779 368.228 166.981 361.05 167.968C344.85 171.116 313.476 167.841 303.379 171.688C292.35 174 289.251 174.586 286.944 175.026C281.968 175.975 275.142 177.809 270.224 177.536C258.956 176.91 248.329 180.312 236.914 178.397C223.13 176.085 209.277 175.923 195.555 174.011C181.465 172.048 167.162 171.8 152.955 169.417C148.139 168.609 143.915 169.176 139.099 168.368C132.133 167.199 126.744 164.629 120.17 162.5C105.446 157.73 87.7725 144.453 77.412 133.075C66.3568 120.935 57.2344 107.591 45.877 95.4705C37.369 86.3908 31.9252 73.5446 22.3535 65.8709C17.825 62.2402 14.3112 56.9105 10.2107 52.9205C7.19782 49.9888 2.43332 46.9468 0.0174238 43.5571C-5.32676 36.0587 -13.4458 30.4478 -19.6785 23.6704C-25.8666 16.9416 -28.6125 9.5782 -33.2137 1.69905" stroke="#404A25" stroke-width="3" stroke-linecap="round"/>
<path d="M446.35 161.5C429.85 166 407.985 150.967 391.234 148.157C381.425 146.511 371.644 143.595 361.666 141.921C352.597 140.4 343.495 148.103 337.88 154.444C334.981 157.717 328.908 170.265 324.35 169.5" stroke="#404A25" stroke-width="3" stroke-linecap="round"/>
<path d="M292.137 176.181C289.608 191.256 313.792 195.121 324.655 196.943C341.611 199.787 359.894 209.656 376.85 212.5C370.85 207 341.185 192.307 333.696 186.979C320.936 177.901 301.407 177.736 285.933 175.141" stroke="#404A25" stroke-width="3" stroke-linecap="round"/>
<path d="M201.85 173.5C212.746 175.328 231.445 170.28 240.654 163.717C249.389 157.492 261.271 147.853 272.2 146.332C282.467 144.902 296.288 137.596 305.65 133.234C317.61 127.66 330.427 120.784 338.328 109.943C347.029 98.0057 350.184 82.8058 355.674 69.4822C360.578 57.5833 333.76 72.1433 329.86 76.7744C315.58 93.7325 306.796 111.611 303.145 133.38" stroke="#404A25" stroke-width="3" stroke-linecap="round"/>
<path d="M242.561 163.331C230.605 171.852 216.932 175.499 201.967 173.813C207.762 171.213 213.219 171.418 218.635 167.396C225.539 162.268 230.895 156.729 237.116 151.008C240.409 147.979 242.791 143.795 245.572 140.308C248.328 136.853 263.35 105.5 296.35 110.5C296.35 110.5 292.697 114.007 290.225 115.341C277.35 121 274.462 126.374 270.85 129.815C262.16 138.093 252.374 156.337 242.561 163.331Z" stroke="#404A25" stroke-width="3" stroke-linecap="round"/>
<path d="M152.254 170.49C147.515 169.999 146.85 170.49 137.1 168.02C155.228 162.137 169.489 147.034 182.511 132.649C191.785 122.403 202.795 109.377 208.839 96.6813C212.12 89.7887 219.137 83.2321 224.726 78.2135C230.12 73.3687 236.437 69.9013 242.037 65.3401C245.765 62.3033 244.484 64.8188 243.155 68.2054C239.278 78.0833 235.377 87.2542 232.681 97.4962C230.939 104.113 227.977 112.367 224.865 118.403C219.25 129.295 211.49 144.923 201.757 152.161C192.79 158.829 184.241 164.635 173.356 168.168C166.478 170.4 152.254 170.49 152.254 170.49Z" stroke="#404A25" stroke-width="3" stroke-linecap="round"/>
<path d="M50.3501 100.867C60.6931 109.599 85.2944 113.422 98.204 115.588M98.204 115.588C109.604 117.5 124.298 120.542 135.317 115.293C146.204 110.107 154.594 103.193 164.222 96.3306C170.992 91.5055 177.857 86.4742 182.325 79.6662C183.856 77.332 187.398 73.5496 189.939 72.2976C197 68.8181 180.139 73.6793 178.493 74.2044C165.771 78.2631 151.417 83.3857 140.581 91.5146C136.718 94.4121 124.85 105.5 98.204 115.588Z" stroke="#404A25" stroke-width="3" stroke-linecap="round"/>
<path d="M100.85 170.5C98.3501 165.5 92.3501 159 92.3501 146.5C101.797 153.5 102.959 153.655 107.478 157.723C110.028 160.018 117.35 166 128.558 184.149C130.158 187.115 132.408 193.904 133.152 197.321C133.87 200.622 135.839 201.41 136.683 204.575C137.518 207.71 139.938 210.835 142.304 212.888C143.293 213.747 147.964 222.223 147.625 223.419C147.231 224.805 139.756 220.848 138.884 220.181C128.628 212.334 119.08 206.586 112.07 195.415C107.214 187.678 107.483 183.766 100.85 170.5Z" stroke="#404A25" stroke-width="3" stroke-linecap="round"/>
<path d="M201.926 180.851C195.514 177.86 191.975 174.279 184.35 173C214.85 212 248.757 228.316 257.039 234.142C264.615 239.471 272.237 243.501 280.274 247.611C287.25 251.179 294.084 253.041 301.762 254.329C305.569 254.967 314.85 256.5 327.35 247.611C316.35 244 305.35 238 287.85 218C273.85 196.5 253.552 191.383 239.35 189C233.404 188.003 207.407 183.407 201.926 180.851Z" stroke="#404A25" stroke-width="3" stroke-linecap="round"/>
<path d="M196.972 193.455C199.886 201.069 200.85 201.5 200.85 201.5M196.972 193.455C199.511 198.904 195.395 198.902 200.85 201.5M196.972 193.455C193.932 186.932 187.949 181.792 185.214 174.829M200.85 201.5C203.161 204.492 226.191 222.067 228.329 225.361C229.57 227.272 233.319 231.49 234.882 232.767C247.701 243.247 248.44 259.609 250.602 275.09C253.706 297.311 255.134 319.585 254.198 341.953C254.037 345.798 257.937 350.881 259.735 354.15C262.202 358.636 266.35 365 272.35 376.5C247.35 362 234.511 327.92 235.013 313C235.149 308.944 233.098 292.937 232.686 288.951C232.134 283.608 228.066 259.348 228.329 254C228.764 245.144 203.403 209.83 200.85 201.5Z" stroke="#404A25" stroke-width="3" stroke-linecap="round"/>
<path d="M183.35 172.5C187.85 176 197.704 199.549 199.766 202.143M199.766 202.143C203.095 206.33 202.561 215.896 201.711 220.965C198.538 239.879 192.988 257.759 189.818 276.656C188.82 282.606 189.777 282.56 185.45 278.191C183.45 276.171 180.061 270.53 179.912 267.695C179.504 259.943 175.724 254.215 177.073 246.171C178.834 235.676 181.099 229.136 187.05 220.49C190.906 214.888 198.587 209.17 199.766 202.143Z" stroke="#404A25" stroke-width="3" stroke-linecap="round"/>
<path d="M67.7083 206.141C57.4804 193.51 52.2262 183.937 48.7892 168.526C46.3628 157.646 46.5557 145.415 44.8954 134.282C43.8855 127.51 42.8257 121.798 39.5146 115.662C37.43 111.8 35.1981 108.054 32.4368 104.625C16.8501 87.0002 13.3823 80.5299 11.4731 77.5096C8.28216 72.4617 7.18096 66.5824 3.95238 61.5077C2.4296 59.1142 3.25355 54.7327 1.47898 53.4392" stroke="#404A25" stroke-width="3" stroke-linecap="round"/>
<path d="M-1.09049 83.5528C1.20508 73.5206 0.755579 56.6424 2.45687 46.5C0.875716 55.9262 8.03212 75.2177 6.38792 85.0198L2.45687 108.455C1.69737 112.983 -1.14398 120.168 0.0270984 124.63C1.39228 129.832 2.44151 133.958 2.05671 139.569C1.48031 147.975 0.168918 160.347 4.57772 168.056C14.9771 186.238 13.0967 204.722 9.68869 225.039C8.48595 232.21 6.21013 239.58 4.74819 246.888C3.24678 254.394 -1.46502 260.947 -3.85703 268.193C-4.39749 269.83 -3.3556 264.781 -3.07038 263.081C-1.96836 256.511 -0.00576752 249.53 -1.67052 242.906C-3.9492 233.839 -2.56907 224.417 -5.85869 215.487C-8.25154 208.991 -12.6729 202.698 -15.352 196.036C-19.0567 186.824 -19.9488 175.54 -19.6176 165.698C-19.0091 147.618 -13.9558 128.663 -10.69 110.785C-8.91756 101.083 -3.20094 92.7759 -1.09049 83.5528Z" stroke="#404A25" stroke-width="3" stroke-linecap="round"/>
<path d="M66.8501 205.5C58.3501 196 54.2132 198.62 47.3501 191.5C31.6817 165.5 32.5687 157.932 28.8501 152.5C27.4768 150.495 25.4202 138.843 24.8501 136.5C23.4499 132.251 24.8501 127.5 13.0268 107.963C11.8823 102.345 5.85007 94.5004 5.85007 88.0004" stroke="#404A25" stroke-width="3" stroke-linecap="round"/>
</g>
</svg>
