<svg width="390" height="333" viewBox="0 0 390 333" fill="none" xmlns="http://www.w3.org/2000/svg">
<g opacity="0.1">
<path d="M10.9563 134.957C12.1308 139.09 17.3054 137.844 20.3342 138.918C25.2057 140.646 31.2834 142.523 36.4706 143.159C45.1471 144.221 53.9432 142.544 62.5767 142.253C68.6631 142.048 75.932 139.723 81.895 140.543C95.3538 143.159 121.418 140.438 129.807 143.634C138.969 145.555 141.544 146.041 143.46 146.407C147.594 147.196 153.265 148.72 157.351 148.492C166.712 147.972 175.541 150.799 185.025 149.208C196.476 147.287 207.985 147.152 219.385 145.564C231.09 143.933 242.973 143.727 254.775 141.747C258.776 141.076 262.286 141.547 266.287 140.876C272.074 139.905 276.551 137.77 282.012 136.001C294.245 132.038 308.927 121.008 317.535 111.556C326.719 101.47 334.298 90.3839 343.733 80.3145C350.801 72.7713 355.324 62.099 363.276 55.7238C367.038 52.7076 369.957 48.2798 373.364 44.965C375.867 42.5295 379.825 40.0022 381.832 37.1861C386.272 30.9566 393.017 26.2952 398.195 20.6648C403.336 15.0747 405.617 8.95734 409.439 2.41154" stroke="#404A25" stroke-width="3" stroke-linecap="round"/>
<path d="M11.0302 135.17C24.738 138.909 42.9028 126.419 56.819 124.085C64.9683 122.718 73.0941 120.295 81.3838 118.905C88.9179 117.641 96.4796 124.04 101.144 129.308C103.553 132.027 108.598 142.452 112.385 141.817" stroke="#404A25" stroke-width="3" stroke-linecap="round"/>
<path d="M139.147 147.367C141.247 159.89 121.156 163.102 112.132 164.615C98.045 166.978 82.8558 175.177 68.769 177.54C73.7537 172.971 98.3989 160.764 104.62 156.338C115.221 148.796 131.445 148.659 144.3 146.503" stroke="#404A25" stroke-width="3" stroke-linecap="round"/>
<path d="M214.155 145.139C205.102 146.658 189.567 142.464 181.917 137.012C174.66 131.84 164.789 123.833 155.709 122.569C147.18 121.381 135.698 115.312 127.921 111.687C117.984 107.057 107.336 101.344 100.772 92.3379C93.5435 82.4206 90.9229 69.7929 86.3613 58.7241C82.2874 48.8387 104.567 60.9348 107.807 64.7822C119.671 78.8706 126.968 93.724 130.002 111.809" stroke="#404A25" stroke-width="3" stroke-linecap="round"/>
<path d="M180.333 136.691C190.266 143.77 201.624 146.8 214.057 145.4C209.243 143.239 204.71 143.41 200.21 140.068C194.474 135.808 190.024 131.206 184.857 126.453C182.121 123.937 180.142 120.461 177.831 117.564C175.542 114.694 163.062 88.6467 135.646 92.8007C135.646 92.8007 138.682 95.7145 140.735 96.8225C151.431 101.524 153.83 105.989 156.831 108.847C164.051 115.724 172.181 130.881 180.333 136.691Z" stroke="#404A25" stroke-width="3" stroke-linecap="round"/>
<path d="M255.357 142.639C259.295 142.231 259.847 142.639 267.947 140.587C252.887 135.699 241.039 123.152 230.221 111.201C222.516 102.69 213.369 91.8681 208.348 81.3205C205.622 75.5943 199.793 70.1472 195.15 65.9778C190.669 61.953 185.421 59.0723 180.769 55.283C177.671 52.7601 178.736 54.8499 179.84 57.6634C183.06 65.8698 186.301 73.4886 188.541 81.9975C189.988 87.4944 192.449 94.3519 195.034 99.3666C199.699 108.415 206.146 121.398 214.232 127.411C221.681 132.951 228.784 137.775 237.827 140.709C243.541 142.564 255.357 142.639 255.357 142.639Z" stroke="#404A25" stroke-width="3" stroke-linecap="round"/>
<path d="M340.017 84.7975C331.424 92.0519 310.986 95.2285 300.261 97.0275M300.261 97.0275C290.79 98.6162 278.583 101.143 269.429 96.7828C260.383 92.4743 253.413 86.7298 245.415 81.0291C239.79 77.0206 234.087 72.8407 230.376 67.1847C229.103 65.2455 226.161 62.1033 224.05 61.0631C218.184 58.1724 232.192 62.211 233.559 62.6473C244.128 66.0191 256.053 70.2749 265.055 77.0281C268.264 79.4353 278.124 88.6469 300.261 97.0275Z" stroke="#404A25" stroke-width="3" stroke-linecap="round"/>
<path d="M298.063 142.647C300.14 138.493 305.124 133.093 305.124 122.709C297.276 128.524 296.311 128.652 292.556 132.033C290.438 133.939 284.355 138.909 275.044 153.987C273.714 156.45 271.845 162.09 271.227 164.93C270.631 167.672 268.994 168.326 268.294 170.956C267.6 173.56 265.589 176.157 263.624 177.862C262.802 178.575 258.921 185.617 259.204 186.611C259.531 187.762 265.741 184.475 266.465 183.921C274.986 177.401 282.918 172.626 288.742 163.346C292.776 156.918 292.552 153.668 298.063 142.647Z" stroke="#404A25" stroke-width="3" stroke-linecap="round"/>
<path d="M214.092 151.246C219.419 148.762 222.358 145.787 228.693 144.724C203.354 177.124 175.186 190.679 168.305 195.519C162.011 199.946 155.679 203.294 149.002 206.709C143.207 209.673 137.529 211.22 131.15 212.29C127.987 212.82 120.277 214.094 109.892 206.709C119.031 203.709 128.169 198.725 142.708 182.109C154.339 164.247 171.202 159.996 183.001 158.017C187.941 157.188 209.538 153.37 214.092 151.246Z" stroke="#404A25" stroke-width="3" stroke-linecap="round"/>
<path d="M218.207 161.718C215.786 168.043 214.985 168.401 214.985 168.401M218.207 161.718C216.098 166.244 219.517 166.243 214.985 168.401M218.207 161.718C220.733 156.298 225.704 152.028 227.975 146.244M214.985 168.401C213.066 170.887 193.933 185.487 192.156 188.224C191.126 189.812 188.011 193.316 186.712 194.377C176.063 203.083 175.449 216.677 173.653 229.537C171.074 247.998 169.888 266.503 170.666 285.086C170.799 288.28 167.559 292.503 166.066 295.219C164.016 298.945 160.57 304.233 155.585 313.787C176.354 301.741 187.021 273.428 186.604 261.032C186.49 257.663 188.194 244.365 188.537 241.053C188.995 236.614 192.375 216.46 192.156 212.017C191.795 204.659 212.864 175.321 214.985 168.401Z" stroke="#404A25" stroke-width="3" stroke-linecap="round"/>
<path d="M229.524 144.309C225.785 147.216 217.599 166.78 215.886 168.935M215.886 168.935C213.12 172.414 213.564 180.361 214.27 184.572C216.906 200.285 221.517 215.14 224.15 230.839C224.98 235.782 224.185 235.743 227.779 232.114C229.441 230.436 232.257 225.75 232.381 223.394C232.719 216.954 235.86 212.196 234.739 205.513C233.276 196.794 231.394 191.361 226.45 184.178C223.246 179.523 216.865 174.773 215.886 168.935Z" stroke="#404A25" stroke-width="3" stroke-linecap="round"/>
<path d="M325.596 172.256C334.093 161.763 338.458 153.81 341.314 141.007C343.329 131.968 343.169 121.807 344.549 112.558C345.388 106.932 346.268 102.187 349.019 97.0893C350.751 93.8801 352.605 90.7681 354.899 87.9194C367.848 73.2774 370.729 67.9021 372.315 65.3929C374.966 61.1992 375.881 56.3149 378.563 52.099C379.828 50.1105 379.144 46.4704 380.618 45.3959" stroke="#404A25" stroke-width="3" stroke-linecap="round"/>
<path d="M382.752 70.4135C380.845 62.0791 381.219 48.0571 379.805 39.631C381.119 47.4621 375.174 63.489 376.54 71.6323L379.805 91.1018C380.436 94.8634 382.797 100.833 381.824 104.54C380.69 108.861 379.818 112.289 380.138 116.951C380.617 123.934 381.706 134.212 378.043 140.616C369.404 155.722 370.966 171.078 373.797 187.957C374.797 193.914 376.687 200.037 377.902 206.108C379.149 212.344 383.064 217.788 385.051 223.808C385.5 225.168 384.634 220.973 384.397 219.561C383.482 214.103 381.851 208.303 383.234 202.8C385.127 195.267 383.981 187.44 386.714 180.021C388.702 174.624 392.375 169.396 394.601 163.862C397.678 156.208 398.419 146.834 398.144 138.658C397.639 123.638 393.441 107.89 390.727 93.0377C389.255 84.9769 384.506 78.0759 382.752 70.4135Z" stroke="#404A25" stroke-width="3" stroke-linecap="round"/>
<path d="M326.309 171.724C333.371 163.832 336.808 166.009 342.509 160.094C355.526 138.494 354.789 132.206 357.879 127.694C359.019 126.027 360.728 116.347 361.202 114.401C362.365 110.871 361.202 106.924 371.024 90.6928C371.975 86.026 376.986 79.5086 376.986 74.1086" stroke="#404A25" stroke-width="3" stroke-linecap="round"/>
</g>
</svg>
