<svg width="22" height="25" viewBox="0 0 22 25" fill="none" xmlns="http://www.w3.org/2000/svg">
<path fill-rule="evenodd" clip-rule="evenodd" d="M0.636292 2.7999C0.636292 2.16338 0.887744 1.55293 1.33533 1.10285C1.78292 0.652759 2.38998 0.399902 3.02296 0.399902L18.9341 0.399902C19.5671 0.399902 20.1741 0.652759 20.6217 1.10285C21.0693 1.55293 21.3208 2.16338 21.3208 2.7999V21.9999C21.3208 22.6364 21.0693 23.2469 20.6217 23.697C20.1741 24.147 19.5671 24.3999 18.9341 24.3999H3.02296C2.38998 24.3999 1.78292 24.147 1.33533 23.697C0.887744 23.2469 0.636292 22.6364 0.636292 21.9999V2.7999ZM14.9563 7.5999C14.9563 8.66077 14.5372 9.67818 13.7912 10.4283C13.0453 11.1785 12.0335 11.5999 10.9785 11.5999C9.92355 11.5999 8.91179 11.1785 8.16581 10.4283C7.41983 9.67818 7.00074 8.66077 7.00074 7.5999V3.5999H5.40963V7.5999C5.40963 9.08511 5.99635 10.5095 7.04072 11.5597C8.08509 12.6099 9.50156 13.1999 10.9785 13.1999C12.4555 13.1999 13.872 12.6099 14.9163 11.5597C15.9607 10.5095 16.5474 9.08511 16.5474 7.5999V3.5999H14.9563V7.5999Z" fill="white"/>
</svg>
